<svg width="144" height="144" viewBox="0 0 144 144" fill="none" xmlns="http://www.w3.org/2000/svg">
<path d="M72 12C105.084 12 132 38.916 132 72C132 105.084 105.084 132 72 132C38.916 132 12 105.084 12 72C12 38.916 38.916 12 72 12ZM72 0C32.238 0 0 32.238 0 72C0 111.762 32.238 144 72 144C111.762 144 144 111.762 144 72C144 32.238 111.762 0 72 0ZM105.048 83.646C95.97 90.816 86.004 95.232 72.006 95.232C57.996 95.232 48.03 90.816 38.952 83.646L36 86.604C42.762 96.924 55.2 108 72.006 108C88.806 108 101.238 96.924 108 86.604L105.048 83.646ZM108 60.012L103.47 63.048C103.47 63.048 100.452 57.36 92.994 57.36C85.752 57.36 82.524 63.048 82.524 63.048L78 60.012C79.686 55.524 85.23 48 92.994 48C100.764 48 106.302 55.524 108 60.012ZM66 60.012L61.47 63.048C61.47 63.048 58.452 57.36 50.994 57.36C43.752 57.36 40.524 63.048 40.524 63.048L36 60.012C37.686 55.524 43.23 48 50.994 48C58.764 48 64.302 55.524 66 60.012Z" fill="white"/>
</svg>
